<svg width="26" height="26" viewBox="0 0 26 26" fill="none" xmlns="http://www.w3.org/2000/svg">
<path d="M2.47898 4.50435C2.56963 4.50435 2.66068 4.4721 2.73335 4.40664C2.82409 4.32494 2.91753 4.24328 3.01102 4.16396C3.17118 4.02812 3.19094 3.78813 3.05505 3.62796C2.91921 3.4678 2.67927 3.44799 2.51905 3.58394C2.41982 3.66808 2.3207 3.75476 2.22437 3.8415C2.06827 3.98206 2.05572 4.22251 2.19629 4.37861C2.27134 4.46194 2.37493 4.50435 2.47898 4.50435V4.50435Z" fill="black"/>
<path d="M12.7685 1.37307C13.0142 1.40888 13.2616 1.4526 13.504 1.50313C13.5302 1.50856 13.5563 1.5112 13.582 1.5112C13.7583 1.5112 13.9165 1.38785 13.9539 1.20839C13.9968 1.00278 13.8648 0.801379 13.6592 0.75852C13.4017 0.704844 13.1389 0.65843 12.8782 0.620395C12.6703 0.59018 12.4773 0.734043 12.447 0.941942C12.4167 1.14979 12.5607 1.34281 12.7685 1.37307V1.37307Z" fill="black"/>
<path d="M18.837 4.0758C19.028 4.23424 19.2166 4.4005 19.3976 4.56996C19.471 4.63861 19.5643 4.67264 19.6574 4.67264C19.759 4.67264 19.8602 4.63221 19.9351 4.55228C20.0787 4.39898 20.0708 4.15832 19.9175 4.01476C19.7255 3.8349 19.5252 3.65848 19.3224 3.49035C19.1606 3.35629 18.921 3.37873 18.7869 3.54037C18.6529 3.702 18.6753 3.94174 18.837 4.0758Z" fill="black"/>
<path d="M14.9454 1.89673C15.1804 1.97666 15.416 2.06487 15.6456 2.15896C15.6928 2.17831 15.7416 2.18745 15.7897 2.18745C15.9394 2.18745 16.0814 2.09838 16.1417 1.95122C16.2214 1.75688 16.1284 1.53476 15.934 1.45514C15.6901 1.3552 15.4398 1.26151 15.1902 1.17665C14.9915 1.10901 14.7754 1.21545 14.7077 1.41426C14.6401 1.61312 14.7465 1.82909 14.9454 1.89673Z" fill="black"/>
<path d="M10.5191 1.25186C10.5237 1.25186 10.5282 1.25181 10.5328 1.2516C10.7798 1.24287 11.0317 1.2415 11.2803 1.24744C11.4902 1.25348 11.6647 1.08636 11.6697 0.876381C11.6747 0.6664 11.5086 0.492119 11.2986 0.487041C11.0351 0.480795 10.7679 0.482267 10.5059 0.49151C10.296 0.498924 10.1319 0.675135 10.1393 0.885014C10.1466 1.09032 10.3153 1.25186 10.5191 1.25186V1.25186Z" fill="black"/>
<path d="M22.0498 8.15262C22.1158 8.2874 22.251 8.36565 22.3916 8.36565C22.4478 8.36565 22.5048 8.35316 22.5586 8.32675C22.7472 8.23433 22.8252 8.00653 22.7328 7.81793C22.617 7.58159 22.4925 7.34581 22.3626 7.11709C22.259 6.93443 22.0268 6.8705 21.8442 6.97409C21.6616 7.07779 21.5975 7.30991 21.7012 7.49257C21.8234 7.70798 21.9407 7.93005 22.0498 8.15262Z" fill="black"/>
<path d="M20.887 6.24126C20.9616 6.34196 21.0765 6.39523 21.1928 6.39523C21.2715 6.39523 21.3509 6.37091 21.4189 6.32048C21.5877 6.19546 21.6231 5.95729 21.4981 5.78855C21.3413 5.57689 21.1762 5.36742 21.0073 5.16597C20.8723 5.00499 20.6325 4.98387 20.4715 5.11885C20.3106 5.25377 20.2895 5.49366 20.4244 5.65459C20.5836 5.84441 20.7392 6.04184 20.887 6.24126V6.24126Z" fill="black"/>
<path d="M22.6233 9.52991C22.7046 9.76437 22.7796 10.0042 22.8462 10.2427C22.8931 10.4107 23.0459 10.5208 23.2123 10.5208C23.2461 10.5208 23.2806 10.5162 23.3148 10.5066C23.517 10.4501 23.6353 10.2403 23.5787 10.038C23.508 9.78468 23.4283 9.52991 23.342 9.28083C23.2732 9.08243 23.0565 8.97731 22.8581 9.04602C22.6597 9.11482 22.5545 9.33151 22.6233 9.52991Z" fill="black"/>
<path d="M8.23007 1.54147C8.25718 1.54147 8.28471 1.53852 8.31228 1.53248C8.55405 1.47921 8.80095 1.43264 9.04607 1.3941C9.25356 1.36145 9.39529 1.16681 9.36269 0.959313C9.33009 0.751872 9.13535 0.61004 8.9279 0.642692C8.6676 0.683622 8.40542 0.733083 8.14856 0.789704C7.94346 0.834899 7.81381 1.03782 7.85906 1.24293C7.89821 1.42046 8.05548 1.54147 8.23007 1.54147V1.54147Z" fill="black"/>
<path d="M16.9909 2.80845C17.207 2.92956 17.4227 3.05911 17.6316 3.19347C17.6952 3.23435 17.7664 3.2539 17.8369 3.2539C17.962 3.2539 18.0845 3.19225 18.1572 3.07922C18.2708 2.90255 18.2196 2.66723 18.0429 2.55368C17.821 2.41109 17.5922 2.27352 17.3626 2.14494C17.1793 2.04226 16.9476 2.10757 16.845 2.29084C16.7423 2.47406 16.8076 2.70582 16.9909 2.80845V2.80845Z" fill="black"/>
<path d="M6.03226 2.24209C6.08167 2.24209 6.13184 2.23239 6.18023 2.21198C6.4087 2.11534 6.64295 2.0246 6.87665 1.94218C7.0747 1.87235 7.17865 1.65511 7.10877 1.45707C7.03895 1.25897 6.82165 1.15502 6.62366 1.22494C6.37544 1.31244 6.12661 1.40892 5.88398 1.5115C5.69055 1.59331 5.60006 1.81644 5.68187 2.00992C5.74316 2.1549 5.88403 2.24209 6.03226 2.24209V2.24209Z" fill="black"/>
<path d="M3.99791 3.33094C4.06971 3.33094 4.14233 3.31063 4.20677 3.26818C4.41396 3.13173 4.62795 2.9999 4.84286 2.8763C5.02491 2.77159 5.08762 2.53911 4.98296 2.35706C4.8783 2.17496 4.64583 2.11229 4.46372 2.21695C4.23556 2.34817 4.00837 2.48813 3.78844 2.633C3.61304 2.74853 3.56449 2.98436 3.68002 3.15976C3.75309 3.27077 3.87431 3.33094 3.99791 3.33094V3.33094Z" fill="black"/>
<path d="M23.4799 11.2762C23.2722 11.3076 23.1292 11.5013 23.1606 11.709C23.1789 11.8303 23.1955 11.9533 23.2102 12.0747C23.2336 12.2677 23.3977 12.4094 23.5873 12.4094C23.6025 12.4094 23.6179 12.4085 23.6334 12.4066C23.8419 12.3814 23.9905 12.192 23.9653 11.9835C23.9497 11.8547 23.932 11.7241 23.9126 11.5955C23.8813 11.3878 23.6869 11.2451 23.4799 11.2762Z" fill="black"/>
<path d="M4.77353 10.5481C4.77353 10.3381 4.60326 10.1678 4.39323 10.1678H3.66289C3.45286 10.1678 3.28259 10.3381 3.28259 10.5481C3.28259 10.7582 3.45286 10.9284 3.66289 10.9284H4.39323C4.60326 10.9284 4.77353 10.7582 4.77353 10.5481Z" fill="black"/>
<path d="M5.62914 11.9095H4.89881C4.68878 11.9095 4.51851 12.0798 4.51851 12.2898C4.51851 12.4999 4.68878 12.6701 4.89881 12.6701H5.62909C5.83912 12.6701 6.00939 12.4999 6.00939 12.2898C6.00944 12.0798 5.83918 11.9095 5.62914 11.9095Z" fill="black"/>
<path d="M3.88771 15.3362H3.15737C2.94734 15.3362 2.77707 15.5065 2.77707 15.7165C2.77707 15.9265 2.94734 16.0968 3.15737 16.0968H3.88766C4.09769 16.0968 4.26796 15.9265 4.26796 15.7165C4.26801 15.5065 4.09774 15.3362 3.88771 15.3362V15.3362Z" fill="black"/>
<path d="M11.707 4.43747H10.9767C10.7666 4.43747 10.5964 4.60774 10.5964 4.81777C10.5964 5.0278 10.7666 5.19807 10.9767 5.19807H11.707C11.917 5.19807 12.0873 5.0278 12.0873 4.81777C12.0873 4.60774 11.917 4.43747 11.707 4.43747Z" fill="black"/>
<path d="M14.2209 19.0908C14.2209 18.8807 14.0507 18.7104 13.8406 18.7104H13.1103C12.9003 18.7104 12.73 18.8807 12.73 19.0908C12.73 19.3008 12.9003 19.4711 13.1103 19.4711H13.8406C14.0507 19.4711 14.2209 19.3008 14.2209 19.0908Z" fill="black"/>
<path d="M12.2421 20.1176H11.5118C11.3018 20.1176 11.1315 20.2879 11.1315 20.4979C11.1315 20.7079 11.3018 20.8782 11.5118 20.8782H12.2421C12.4522 20.8782 12.6224 20.7079 12.6224 20.4979C12.6224 20.2879 12.4522 20.1176 12.2421 20.1176Z" fill="black"/>
<path d="M25.5965 13.7594C25.3284 13.4912 24.9577 13.3443 24.5782 13.3567C23.5826 13.3888 22.6287 13.7968 21.9153 14.4846C21.9403 14.181 21.9532 13.8749 21.9532 13.5668C21.9532 12.7513 21.8644 11.9425 21.685 11.1462C21.3845 9.81317 20.8316 8.53988 20.0645 7.40914C19.6808 6.84354 19.2443 6.31394 18.7625 5.82923C18.3791 5.4436 17.9738 5.0925 17.5412 4.76851C16.8982 4.2869 16.1623 3.85587 15.454 3.53915C14.0491 2.91099 12.515 2.5903 10.9767 2.5903C8.04472 2.5903 5.28826 3.73207 3.21511 5.80521C3.01534 6.00498 2.82562 6.20979 2.642 6.42408C0.938285 8.41044 0 10.9472 0 13.5669C0 16.7349 1.34306 19.7002 3.70246 21.7861C4.78893 22.7502 6.07176 23.5008 7.45276 23.9677C8.58594 24.3508 9.78077 24.5434 10.9767 24.5434C12.782 24.5434 14.52 24.1089 16.0737 23.2921L16.8566 25.0145C16.973 25.2706 17.2077 25.4534 17.4845 25.5037C17.7529 25.5524 18.0467 25.4636 18.2441 25.2662L18.8127 24.6976C18.9642 24.5461 19.0531 24.3447 19.063 24.1305L19.1319 22.6367L20.6063 21.2982L22.4117 24.0299C22.5543 24.2458 22.7837 24.3844 23.0411 24.4105C23.29 24.4356 23.5523 24.3453 23.734 24.1636L24.3024 23.5952C24.4962 23.4014 24.5861 23.1241 24.5429 22.8535L23.8299 18.3833L24.6508 17.654C25.4723 16.9243 25.9637 15.8759 25.9992 14.7777C26.0115 14.3987 25.8648 14.0275 25.5965 13.7594V13.7594ZM16.8372 5.19807C19.0979 6.78361 20.6174 9.20583 21.0587 11.9095H14.7843C14.5557 11.9095 14.3408 11.8205 14.1791 11.6588C14.0175 11.4972 13.9284 11.2823 13.9284 11.0537C13.9284 10.5817 14.3123 10.1978 14.7843 10.1978H16.3027C16.734 10.1978 17.1398 10.03 17.4457 9.72491C17.7509 9.41957 17.9191 9.01367 17.9191 8.58193C17.9191 7.69062 17.194 6.96551 16.3027 6.96551H15.6009C15.3648 6.96551 15.1429 6.87365 14.9757 6.70653C14.8088 6.53996 14.7169 6.3182 14.7169 6.08202C14.7169 5.59457 15.1135 5.19802 15.6009 5.19802H16.8372V5.19807ZM10.9767 23.7827C8.98503 23.7827 7.12481 23.2096 5.55191 22.2199H8.15704C8.64876 22.2199 9.11117 22.0283 9.45902 21.6805C9.80683 21.3327 9.99837 20.8705 9.99837 20.3791C9.99837 19.3641 9.17236 18.5384 8.15704 18.5384H6.80875C6.67037 18.5384 6.54022 18.4845 6.44231 18.3866C6.34446 18.2887 6.29053 18.1584 6.29053 18.0196C6.29053 17.7338 6.523 17.5013 6.80875 17.5013H11.7713C12.3474 17.5013 12.889 17.2769 13.2966 16.8695C13.7041 16.462 13.9285 15.9201 13.9285 15.3437C13.9285 14.1543 12.9608 13.1866 11.7713 13.1866H9.80683C9.01388 13.1866 8.3688 12.5415 8.3688 11.7485V11.6273C8.3688 11.2752 8.50571 10.9447 8.75454 10.6963C9.00326 10.4475 9.3341 10.3105 9.68612 10.3105C10.2231 10.3105 10.7277 10.1013 11.1064 9.72192C11.4863 9.34273 11.6955 8.83817 11.6955 8.30116C11.6955 7.19291 10.7941 6.29129 9.68617 6.29129H7.09384C6.88381 6.29129 6.71354 6.46156 6.71354 6.67159C6.71354 6.88162 6.88381 7.05189 7.09384 7.05189H9.68617C10.3747 7.05189 10.9349 7.61231 10.9349 8.30116C10.9349 8.63474 10.805 8.94811 10.5686 9.18409C10.3332 9.42002 10.0198 9.54992 9.68622 9.54992C9.13103 9.54992 8.6092 9.766 8.21702 10.1582C7.82448 10.5501 7.6083 11.0718 7.6083 11.6273V11.7485C7.6083 12.9608 8.59457 13.9471 9.80693 13.9471H11.7715C12.5415 13.9471 13.168 14.5736 13.168 15.3437C13.168 15.7169 13.0227 16.0678 12.7588 16.3316C12.495 16.5954 12.1443 16.7407 11.7715 16.7407H6.80885C6.1037 16.7407 5.53008 17.3144 5.53008 18.0195C5.53008 18.3615 5.66307 18.6828 5.90464 18.9243C6.14621 19.1659 6.4673 19.2989 6.8089 19.2989H8.1572C8.75311 19.2989 9.23792 19.7834 9.23792 20.379C9.23792 20.6673 9.12549 20.9384 8.92135 21.1426C8.71716 21.3468 8.44579 21.4592 8.1572 21.4592H4.48998C2.11809 19.509 0.760602 16.6402 0.760602 13.5668C0.760602 11.1867 1.59286 8.88007 3.10751 7.05189H5.31472C5.52475 7.05189 5.69502 6.88162 5.69502 6.67159C5.69502 6.46156 5.52475 6.29129 5.31472 6.29129H3.81377C5.65891 4.47434 8.18873 3.3508 10.9767 3.3508C12.6237 3.3508 14.1804 3.74314 15.5594 4.43843C14.6717 4.46063 13.9563 5.18903 13.9563 6.08197C13.9563 6.52163 14.1275 6.93464 14.4382 7.24461C14.7487 7.55508 15.1616 7.72606 15.6009 7.72606H16.3027C16.7746 7.72606 17.1585 8.11002 17.1585 8.58188C17.1585 8.81044 17.0695 9.02535 16.9082 9.18673C16.7462 9.34827 16.5312 9.43719 16.3027 9.43719H14.7843C13.893 9.43719 13.1678 10.1623 13.1678 11.0536C13.1678 11.4853 13.336 11.8912 13.6413 12.1966C13.9467 12.5019 14.3526 12.67 14.7843 12.67H21.153C21.1791 12.9655 21.1926 13.2646 21.1926 13.5667C21.1926 14.2213 21.1298 14.8614 21.0116 15.4821L20.9739 15.5245L19.0123 15.2116C18.8047 15.1783 18.6099 15.3198 18.5768 15.5272C18.5438 15.7346 18.6851 15.9296 18.8925 15.9626L20.3662 16.1977L18.5716 18.1767L15.7434 16.3076C15.7115 16.2866 15.7023 16.2572 15.7002 16.2362C15.6981 16.2153 15.7013 16.1846 15.7282 16.1576L16.2966 15.5892C16.3186 15.5673 16.35 15.5572 16.3807 15.562L17.1252 15.6807C17.3326 15.7138 17.5275 15.5725 17.5606 15.3651C17.5937 15.1577 17.4523 14.9627 17.245 14.9297L16.5005 14.8109C16.23 14.7678 15.9525 14.8577 15.7588 15.0515L15.1904 15.6199C15.0075 15.8028 14.9175 16.0553 14.9435 16.3127C14.9696 16.57 15.1082 16.7995 15.3241 16.9421L18.0582 18.749L16.7193 20.2239L15.2254 20.2928C15.0113 20.3027 14.81 20.3916 14.6585 20.5431L14.0898 21.1117C13.891 21.3107 13.8022 21.5946 13.8524 21.8714C13.9025 22.1482 14.0854 22.383 14.3414 22.4993L15.1753 22.8784C13.8938 23.4587 12.4725 23.7827 10.9767 23.7827V23.7827ZM23.7648 23.0574L23.1964 23.6257C23.1694 23.6527 23.1386 23.6557 23.1178 23.6538C23.0969 23.6516 23.0675 23.6424 23.0465 23.6106L21.1773 20.7823L23.1563 18.9878L23.792 22.9733C23.7969 23.004 23.7867 23.0354 23.7648 23.0574V23.0574ZM24.1458 17.0855L22.731 18.3423L18.5038 22.1797C18.4289 22.2477 18.3841 22.3427 18.3795 22.4438L18.3032 24.0954C18.3022 24.1197 18.2921 24.1426 18.2748 24.1598L17.7063 24.7283C17.6765 24.7581 17.643 24.7593 17.6201 24.7552C17.5973 24.7511 17.5664 24.7381 17.549 24.6998L16.704 22.8407C16.6659 22.7571 16.5988 22.69 16.5151 22.6519L14.6561 21.8069C14.6177 21.7895 14.6048 21.7585 14.6006 21.7357C14.5965 21.7128 14.5978 21.6793 14.6275 21.6496L15.1961 21.081C15.2133 21.0638 15.2362 21.0537 15.2604 21.0526L16.9121 20.9764C17.0131 20.9717 17.1081 20.927 17.1761 20.852L22.2704 15.2101C22.8621 14.544 23.7122 14.1455 24.6027 14.1168C24.6095 14.1166 24.6164 14.1165 24.6233 14.1165C24.7878 14.1165 24.9417 14.1802 25.0587 14.2972C25.1805 14.419 25.2446 14.5809 25.239 14.7532C25.2104 15.6437 24.8119 16.4937 24.1458 17.0855V17.0855Z" fill="black"/>
</svg>
