<svg width="25" height="25" viewBox="0 0 25 25" fill="none" xmlns="http://www.w3.org/2000/svg">
<g clip-path="url(#clip0)">
<path d="M5.17795 13.3684C5.17795 12.033 5.56486 10.791 6.22377 9.73714C5.94726 9.26441 5.603 8.79419 5.18648 8.43889C3.90127 7.34438 3.1169 12.0376 3.1169 12.0376L1.54264 12.1635L1.06941 6.24636L10.1085 5.52372L10.2069 6.75522C10.4718 6.68196 10.7438 6.62525 11.0208 6.5836L10.8688 4.67963C10.8587 4.55919 10.7534 4.46785 10.6314 4.47789L0.203741 5.31094C0.0812928 5.32097 -0.00853594 5.42736 0.000998956 5.54831L0.722138 14.5708C0.732175 14.6923 0.838063 14.7841 0.960009 14.7741L5.26777 14.4288C5.21408 14.083 5.17795 13.7303 5.17795 13.3684Z" fill="black"/>
<path d="M9.8445 18.711C9.78077 18.6864 9.71553 18.6643 9.6528 18.6377C9.55143 18.5218 9.21219 18.0977 8.88047 17.3174C9.17304 17.3937 9.49673 17.4604 9.8445 17.5161V16.9907C9.39987 16.9144 8.99941 16.8191 8.65264 16.7122C8.48252 16.1963 8.33498 15.5685 8.24615 14.8258C8.70935 14.9322 9.2438 15.0235 9.8445 15.0907V14.5703C9.2162 14.4971 8.66217 14.3957 8.19496 14.2813C8.17338 13.9837 8.15783 13.6756 8.15783 13.3443C8.15783 13.119 8.16385 12.9007 8.17389 12.6904C8.71687 12.5514 9.37127 12.428 10.1421 12.3472C10.127 12.6568 10.116 12.9775 10.116 13.3177C10.116 13.7508 10.131 14.1543 10.1551 14.5362H10.673C10.6474 14.1548 10.6309 13.7533 10.6309 13.3177C10.6309 12.9594 10.6434 12.6247 10.661 12.301C11.077 12.2709 11.5201 12.2523 11.9979 12.2523C12.3657 12.2523 12.707 12.2649 13.0357 12.284C13.0568 12.6378 13.0713 13.0046 13.0713 13.4C13.0713 13.5074 13.0668 13.6068 13.0653 13.7102H13.5807C13.5822 13.6068 13.5857 13.5069 13.5857 13.4C13.5857 13.0186 13.5731 12.6633 13.5541 12.3196C14.3886 12.3929 15.0872 12.5173 15.6563 12.6618C15.6658 12.8626 15.6713 13.0693 15.6713 13.2861C15.6713 13.4322 15.6673 13.5717 15.6618 13.7107H15.717V14.5367H16.543C17.0243 14.3691 17.3801 14.1995 17.6159 14.068C17.5959 14.2256 17.5683 14.3821 17.5356 14.5367H18.0606C18.1358 14.1488 18.1785 13.7488 18.1785 13.3378C18.1785 10.8437 16.7146 8.68529 14.6014 7.67509C14.5894 7.66204 14.5798 7.651 14.5758 7.64749L14.5648 7.65803C13.7568 7.27814 12.8555 7.06435 11.905 7.06435C11.7655 7.06435 11.6275 7.07088 11.4905 7.07941V7.07891V7.07941C8.22457 7.2942 5.63309 10.0177 5.63309 13.3373C5.63309 16.0733 7.39654 18.3998 9.8445 19.255V18.7095V18.7095V18.711ZM10.1727 11.8273C9.41794 11.9006 8.76405 12.014 8.21353 12.146C8.2873 11.341 8.42932 10.664 8.59744 10.107C9.11282 9.94741 9.73911 9.8094 10.4798 9.72911C10.3478 10.3213 10.2354 11.0143 10.1727 11.8273ZM11.9979 11.7385C11.5337 11.7385 11.1031 11.7565 10.6951 11.7841C10.7644 10.9631 10.8833 10.2646 11.0213 9.68244C11.2958 9.66487 11.5793 9.65233 11.883 9.65233C12.1545 9.65233 12.4109 9.66186 12.6593 9.67591C12.8008 10.2505 12.9233 10.9461 12.997 11.7636C12.6804 11.748 12.3487 11.7385 11.9979 11.7385ZM13.5184 11.7982C13.4507 10.9917 13.3358 10.3022 13.2013 9.71757C14.0198 9.79987 14.7008 9.95343 15.2578 10.1286C15.4169 10.6741 15.5504 11.333 15.6191 12.1189C15.037 11.9808 14.3405 11.8644 13.5184 11.7982ZM16.1601 14.1162C16.1752 13.8507 16.1862 13.5762 16.1862 13.2861C16.1862 13.1215 16.1792 12.9655 16.1747 12.8089C16.9731 13.0578 17.4458 13.3213 17.6425 13.4467C17.5276 13.5275 17.0574 13.8291 16.1601 14.1162ZM17.642 12.847C17.3294 12.6784 16.8396 12.4576 16.1461 12.2564C16.0929 11.5232 15.987 10.8863 15.8515 10.3419C16.7347 10.6992 17.1668 11.0665 17.216 11.1102C17.4443 11.6521 17.5909 12.2368 17.642 12.847ZM16.7071 10.1642C16.4331 10.0192 16.0904 9.8641 15.6738 9.71957C15.5343 9.29 15.3818 8.9337 15.2347 8.64363C15.8143 9.05665 16.3147 9.57203 16.7071 10.1642ZM14.2858 8.09663C14.4293 8.27378 14.7575 8.73396 15.0601 9.53038C14.5 9.37832 13.8376 9.25487 13.0678 9.19013C12.8641 8.45896 12.6392 7.93805 12.4711 7.60784C13.1125 7.67107 13.7227 7.84019 14.2858 8.09663ZM11.7861 7.58325C11.8132 7.58325 11.8403 7.58175 11.8679 7.58125C11.9934 7.79252 12.2634 8.3059 12.5168 9.154C12.3115 9.14497 12.1023 9.13895 11.8835 9.13895C11.633 9.13895 11.3922 9.14547 11.1603 9.15651C11.3912 8.35959 11.6416 7.8417 11.7861 7.58325ZM9.58756 8.06903C10.0859 7.84923 10.6203 7.69817 11.1799 7.62742C11.0108 7.97318 10.8 8.49158 10.6093 9.19716C9.91827 9.26039 9.31657 9.3708 8.80219 9.50679C9.1329 8.65769 9.48268 8.19549 9.58756 8.06903ZM8.63909 8.60048C8.48804 8.89154 8.32895 9.25537 8.18192 9.69749C7.74582 9.84804 7.38952 10.0091 7.10748 10.1612C7.51447 9.54845 8.03538 9.01851 8.63909 8.60048ZM6.59912 11.1046L6.60866 11.1142C6.61669 11.1061 7.04977 10.7022 7.99724 10.3208C7.85472 10.8758 7.74381 11.5317 7.6866 12.2835C6.98152 12.4872 6.48219 12.709 6.16905 12.8721C6.21873 12.2503 6.36627 11.6562 6.59912 11.1046ZM6.15199 13.4743C6.33716 13.3604 6.82997 13.0939 7.65599 12.837C7.64997 13.0036 7.64395 13.1692 7.64395 13.3448C7.64395 13.6214 7.65348 13.8833 7.66803 14.1377C6.88667 13.9034 6.39036 13.6565 6.15299 13.521C6.15249 13.5054 6.15199 13.4899 6.15199 13.4743ZM6.20418 14.1327C6.53689 14.2968 7.03221 14.5026 7.71019 14.6918C7.78095 15.3838 7.90239 15.9815 8.04742 16.4984C7.25051 16.1812 6.80839 15.8515 6.6759 15.7421C6.44456 15.2398 6.28297 14.6998 6.20418 14.1327ZM7.24047 16.7061C7.51397 16.8457 7.8497 16.9907 8.25067 17.1272C8.39269 17.5176 8.54324 17.8443 8.68676 18.1103C8.12621 17.7304 7.63692 17.2536 7.24047 16.7061Z" fill="black"/>
<path d="M11.0224 15.4581L10.9491 24.2091H23.8147L23.888 15.4581H11.0224ZM15.6086 23.3956C13.6866 23.3956 12.1289 21.8379 12.1289 19.9149C12.1289 17.9919 13.6866 16.4342 15.6086 16.4342C17.5312 16.4342 19.0889 17.9919 19.0889 19.9149C19.0889 21.8379 17.5312 23.3956 15.6086 23.3956ZM22.4176 17.2762H21.3C20.9668 17.2762 20.6968 17.0057 20.6968 16.6745C20.6968 16.3413 20.9668 16.0718 21.3 16.0718H22.4176C22.7483 16.0718 23.0188 16.3413 23.0188 16.6745C23.0188 17.0057 22.7483 17.2762 22.4176 17.2762Z" fill="black"/>
<path d="M14.878 14.5533H12.2398V15.5108H14.878V14.5533Z" fill="black"/>
<path d="M17.9663 19.9139C17.9663 21.2392 16.8938 22.3081 15.572 22.3081C14.2492 22.3081 13.1783 21.2382 13.1783 19.9139C13.1783 18.5925 14.2492 17.5201 15.572 17.5201C16.8933 17.5206 17.9663 18.5925 17.9663 19.9139Z" fill="black"/>
<path d="M2.63464 8.0043C2.67579 8.0043 2.71543 8.00079 2.75407 7.99577H4.02573V7.98774C4.32733 7.9511 4.55667 7.76793 4.55667 7.54612C4.55667 7.29771 4.26962 7.09648 3.91583 7.09648C3.91583 7.09648 3.91532 7.09648 3.91482 7.09648C3.9083 6.85258 3.62526 6.65536 3.27548 6.65536C2.92169 6.65536 2.63514 6.8566 2.63514 7.10501C2.28134 7.10501 1.99429 7.30624 1.99429 7.55465C1.99429 7.80306 2.28134 8.0043 2.63464 8.0043ZM3.27548 7.55465C3.27598 7.55465 3.27598 7.55465 3.27649 7.55465C3.27649 7.55566 3.27649 7.55616 3.27649 7.55716H3.27448C3.27498 7.55616 3.27548 7.55566 3.27548 7.55465Z" fill="black"/>
<path d="M6.49325 8.0043C6.5344 8.0043 6.57404 8.00079 6.61269 7.99577H7.88434V7.98774C8.18594 7.9511 8.41528 7.76793 8.41528 7.54612C8.41528 7.29771 8.12823 7.09648 7.77444 7.09648H7.77394C7.76691 6.85258 7.48387 6.65536 7.13409 6.65536C6.7803 6.65536 6.49375 6.8566 6.49375 7.10501C6.13996 7.10501 5.85291 7.30624 5.85291 7.55465C5.85291 7.80306 6.13996 8.0043 6.49325 8.0043ZM7.1346 7.55465C7.1351 7.55465 7.1351 7.55465 7.1356 7.55465C7.1356 7.55566 7.1356 7.55616 7.1356 7.55716H7.13359C7.13409 7.55616 7.1346 7.55566 7.1346 7.55465Z" fill="black"/>
<path d="M6.26089 20.6345C5.95979 20.3941 5.72342 20.1432 5.5533 19.8953L6.82194 19.9059C6.82194 19.9059 4.54059 16.0668 4.52202 15.2227C4.50396 14.3801 1.81311 19.8622 1.81311 19.8622L3.35475 19.8752C3.57205 20.7018 4.12959 21.5022 5.01081 22.2043C6.25537 23.1954 8.16536 23.9707 10.398 24.2081V22.1877C8.6968 21.9799 7.23044 21.4063 6.26089 20.6345Z" fill="black"/>
<path d="M21.2668 14.333C21.0174 13.1025 20.094 12.3658 18.8901 12.3668L18.9192 14.3741C19.0974 14.3671 19.2264 14.3691 19.2996 14.7319C19.3031 14.7475 19.3031 14.767 19.3062 14.7841H21.3266C21.315 14.6295 21.2964 14.478 21.2668 14.333Z" fill="black"/>
<path d="M24.5147 7.20788C23.7479 6.42401 22.3975 5.75858 21.2207 6.05014C20.8754 6.08678 20.4644 6.06971 20.1914 6.00598C19.5169 5.84891 21.0074 5.37116 21.1378 5.33804C21.4314 5.26276 21.7255 5.28434 22.0015 5.35108C22.2143 5.40077 22.2319 5.19652 22.0105 5.19501C21.7406 5.19451 21.5097 5.20304 21.2312 5.2738C21.0069 5.3285 20.7575 5.41432 20.5201 5.49662C20.2371 5.59197 20.3118 5.52422 20.0875 5.63512C20.1909 5.4088 20.1292 5.46851 20.2205 5.17494C20.2933 4.94209 20.3675 4.6992 20.4152 4.4804C20.4774 4.19987 20.4784 3.96953 20.4699 3.69904C20.4614 3.47723 20.2576 3.50232 20.3148 3.71209C20.3891 3.98509 20.4187 4.27816 20.3525 4.57424C20.3234 4.70572 19.8903 6.21023 19.7131 5.54078C19.6419 5.26979 19.6128 4.85878 19.6374 4.51201C19.8953 3.32868 19.1892 1.99831 18.3828 1.2566C18.0706 0.967542 17.6867 0.791397 17.6867 0.791397C17.6867 0.791397 16.5546 3.6609 16.7081 3.73266C16.6098 4.11356 17.3736 5.24871 17.3736 5.24871C17.0544 5.28133 16.6063 5.21408 16.1747 5.39725C15.9157 5.50916 15.6623 5.71191 15.447 6.08577C15.3557 6.24536 15.2849 6.38136 15.2483 6.51785C15.2212 6.62023 15.1449 7.13863 15.4049 7.33083C15.6653 7.52404 16.2615 8.04946 16.7794 7.90694C17.2958 7.76442 17.9577 7.52906 17.9577 7.52906C17.9577 7.52906 17.7429 7.82915 17.5046 7.99677C17.3314 8.11871 16.8913 8.58793 17.0695 8.7445C17.2466 8.90359 17.6877 8.46348 17.8046 8.28683C17.9642 8.04193 18.2583 7.81912 18.2583 7.81912C18.2583 7.81912 18.0425 8.48907 17.9151 9.00847C17.7886 9.52938 18.2202 10.1351 18.5318 10.3654C18.8424 10.5953 19.2499 10.526 19.3498 10.4959C19.4858 10.4563 19.6203 10.381 19.7759 10.2851C20.1422 10.0593 20.3384 9.79836 20.4418 9.53791C20.6154 9.10031 20.5316 8.65417 20.5532 8.335C20.5532 8.335 21.7135 9.06417 22.0898 8.95477C22.1666 9.10532 25.002 7.88636 25.002 7.88636C25.002 7.88636 24.8103 7.51099 24.5147 7.20788Z" fill="black"/>
</g>
<defs>
<clipPath id="clip0">
<rect width="25" height="25" fill="white"/>
</clipPath>
</defs>
</svg>
