<svg width="15" height="15" viewBox="0 0 15 15" fill="none" xmlns="http://www.w3.org/2000/svg">
<g clip-path="url(#clip0)">
<path d="M3.10677 8.02106C3.10677 7.21983 3.33892 6.4746 3.73426 5.84229C3.56836 5.55865 3.3618 5.27651 3.11189 5.06333C2.34076 4.40663 1.87014 7.22254 1.87014 7.22254L0.925585 7.29811L0.641646 3.74782L6.0651 3.31423L6.12411 4.05314C6.28309 4.00918 6.44629 3.97515 6.6125 3.95016L6.52127 2.80778C6.51524 2.73551 6.45201 2.68071 6.37884 2.68674L0.122245 3.18657C0.0487757 3.19259 -0.00512157 3.25642 0.000599373 3.32899L0.433283 8.7425C0.439305 8.81537 0.502838 8.87047 0.576005 8.86445L3.16067 8.65729C3.12845 8.44983 3.10677 8.23815 3.10677 8.02106Z" fill="black"/>
<path d="M5.9067 11.2266C5.86846 11.2118 5.82932 11.1986 5.79168 11.1826C5.73086 11.1131 5.52731 10.8586 5.32828 10.3904C5.50383 10.4362 5.69804 10.4762 5.9067 10.5097V10.1944C5.63992 10.1486 5.39964 10.0914 5.19158 10.0273C5.08951 9.71777 5.00099 9.34109 4.94769 8.89546C5.22561 8.95929 5.54628 9.01409 5.9067 9.05444V8.7422C5.52972 8.69824 5.1973 8.63741 4.91698 8.56876C4.90403 8.39021 4.8947 8.20533 4.8947 8.0066C4.8947 7.87141 4.89831 7.74043 4.90433 7.61427C5.23012 7.53086 5.62276 7.45679 6.08525 7.40831C6.07622 7.59409 6.0696 7.7865 6.0696 7.99065C6.0696 8.2505 6.07863 8.49258 6.09308 8.72172H6.40382C6.38846 8.49288 6.37853 8.252 6.37853 7.99065C6.37853 7.77566 6.38605 7.57482 6.39659 7.38061C6.64621 7.36255 6.91208 7.35141 7.19873 7.35141C7.41944 7.35141 7.62419 7.35893 7.82141 7.37038C7.83405 7.58265 7.84279 7.80276 7.84279 8.04003C7.84279 8.10446 7.84008 8.16408 7.83917 8.22611H8.1484C8.14931 8.16408 8.15142 8.10416 8.15142 8.04003C8.15142 7.81119 8.14389 7.59801 8.13245 7.39175C8.63318 7.43571 9.05231 7.51039 9.39376 7.59711C9.39948 7.71755 9.4028 7.8416 9.4028 7.97168C9.4028 8.0593 9.40039 8.143 9.39707 8.22641H9.4302V8.72202H9.92581C10.2146 8.62145 10.428 8.51968 10.5696 8.44079C10.5575 8.53534 10.541 8.62928 10.5214 8.72202H10.8363C10.8815 8.48927 10.9071 8.24929 10.9071 8.00269C10.9071 6.50621 10.0288 5.21117 8.76085 4.60505C8.75362 4.59723 8.7479 4.5906 8.74549 4.58849L8.73887 4.59482C8.25409 4.36688 7.71331 4.23861 7.14302 4.23861C7.05932 4.23861 6.97652 4.24253 6.89431 4.24765V4.24735V4.24765C4.93474 4.37652 3.37985 6.0106 3.37985 8.00239C3.37985 9.644 4.43792 11.0399 5.9067 11.553V11.2257V11.2257V11.2266ZM6.10362 7.09637C5.65076 7.14033 5.25843 7.20838 4.92812 7.28757C4.97238 6.8046 5.05759 6.39842 5.15846 6.06419C5.46769 5.96844 5.84347 5.88564 6.28789 5.83746C6.20871 6.19277 6.14126 6.60859 6.10362 7.09637ZM7.19873 7.04308C6.92021 7.04308 6.66186 7.05392 6.41707 7.07048C6.45862 6.57788 6.52998 6.15874 6.61278 5.80946C6.77749 5.79892 6.94761 5.7914 7.12978 5.7914C7.29267 5.7914 7.44654 5.79712 7.59558 5.80555C7.68049 6.15031 7.75396 6.56764 7.79822 7.05813C7.60823 7.0488 7.4092 7.04308 7.19873 7.04308ZM8.11107 7.07891C8.07042 6.59504 8.00147 6.18132 7.92077 5.83054C8.41187 5.87992 8.82046 5.97206 9.15469 6.07714C9.25014 6.40444 9.33023 6.79979 9.37148 7.27131C9.0222 7.18851 8.60427 7.11865 8.11107 7.07891ZM9.69607 8.4697C9.7051 8.31042 9.71173 8.14571 9.71173 7.97168C9.71173 7.87291 9.70751 7.77927 9.7048 7.68533C10.1839 7.83467 10.4675 7.99275 10.5855 8.06803C10.5166 8.11651 10.2344 8.29747 9.69607 8.4697ZM10.5852 7.70821C10.3976 7.60704 10.1038 7.47456 9.68764 7.35382C9.65572 6.9139 9.59219 6.53181 9.51089 6.20511C10.0408 6.4195 10.3001 6.6399 10.3296 6.6661C10.4666 6.99129 10.5545 7.34207 10.5852 7.70821ZM10.0243 6.09852C9.85987 6.0115 9.65422 5.91846 9.4043 5.83174C9.32059 5.574 9.22906 5.36022 9.14084 5.18618C9.48861 5.43399 9.78881 5.74322 10.0243 6.09852ZM8.57145 4.85798C8.65757 4.96427 8.85449 5.24038 9.03605 5.71823C8.70002 5.62699 8.30257 5.55292 7.84068 5.51408C7.71843 5.07538 7.58354 4.76283 7.48267 4.56471C7.86748 4.60265 8.23362 4.70412 8.57145 4.85798ZM7.07166 4.54995C7.08792 4.54995 7.10418 4.54905 7.12074 4.54875C7.19602 4.67551 7.35801 4.98354 7.51007 5.4924C7.38692 5.48698 7.26136 5.48337 7.13008 5.48337C6.97983 5.48337 6.8353 5.48728 6.69619 5.49391C6.8347 5.01576 6.98495 4.70502 7.07166 4.54995ZM5.75254 4.84142C6.05153 4.70954 6.3722 4.61891 6.70793 4.57645C6.60646 4.78391 6.48 5.09495 6.36558 5.5183C5.95096 5.55624 5.58994 5.62248 5.28131 5.70408C5.47974 5.19461 5.68961 4.9173 5.75254 4.84142ZM5.18345 5.16029C5.09282 5.33493 4.99737 5.55322 4.90915 5.8185C4.64749 5.90883 4.43371 6.00548 4.26449 6.09671C4.50868 5.72907 4.82123 5.4111 5.18345 5.16029ZM3.95947 6.66279L3.96519 6.66851C3.97001 6.66369 4.22986 6.4213 4.79834 6.19246C4.71283 6.52548 4.64629 6.91902 4.61196 7.37007C4.18891 7.49232 3.88932 7.62541 3.70143 7.72327C3.73124 7.3502 3.81976 6.9937 3.95947 6.66279ZM3.69119 8.08459C3.8023 8.01624 4.09798 7.85635 4.59359 7.70219C4.58998 7.80216 4.58637 7.90152 4.58637 8.00691C4.58637 8.17281 4.59209 8.32999 4.60082 8.48265C4.132 8.34203 3.83421 8.19389 3.69179 8.11259C3.69149 8.10326 3.69119 8.09392 3.69119 8.08459ZM3.72251 8.47964C3.92214 8.5781 4.21932 8.70155 4.62611 8.81506C4.66857 9.23028 4.74144 9.5889 4.82845 9.89903C4.3503 9.70873 4.08503 9.51091 4.00554 9.44527C3.86673 9.14387 3.76978 8.81988 3.72251 8.47964ZM4.34428 10.0237C4.50838 10.1074 4.70982 10.1944 4.9504 10.2763C5.03561 10.5106 5.12594 10.7066 5.21206 10.8662C4.87573 10.6382 4.58215 10.3522 4.34428 10.0237Z" fill="black"/>
<path d="M6.61342 9.27485L6.56946 14.5255H14.2888L14.3328 9.27485H6.61342ZM9.36519 14.0374C8.21197 14.0374 7.27735 13.1028 7.27735 11.9489C7.27735 10.7951 8.21197 9.86049 9.36519 9.86049C10.5187 9.86049 11.4533 10.7951 11.4533 11.9489C11.4533 13.1028 10.5187 14.0374 9.36519 14.0374ZM13.4505 10.3657H12.78C12.5801 10.3657 12.4181 10.2034 12.4181 10.0047C12.4181 9.80479 12.5801 9.6431 12.78 9.6431H13.4505C13.649 9.6431 13.8113 9.80479 13.8113 10.0047C13.8113 10.2034 13.649 10.3657 13.4505 10.3657Z" fill="black"/>
<path d="M8.9268 8.73196H7.3439V9.30646H8.9268V8.73196Z" fill="black"/>
<path d="M10.7798 11.9483C10.7798 12.7435 10.1363 13.3849 9.34321 13.3849C8.5495 13.3849 7.90695 12.7429 7.90695 11.9483C7.90695 11.1555 8.5495 10.5121 9.34321 10.5121C10.136 10.5124 10.7798 11.1555 10.7798 11.9483Z" fill="black"/>
<path d="M1.58077 4.80258C1.60546 4.80258 1.62925 4.80047 1.65243 4.79746H2.41542V4.79264C2.59639 4.77066 2.73399 4.66076 2.73399 4.52767C2.73399 4.37863 2.56176 4.25789 2.34948 4.25789C2.34948 4.25789 2.34918 4.25789 2.34888 4.25789C2.34497 4.11155 2.17515 3.99322 1.96528 3.99322C1.753 3.99322 1.58107 4.11396 1.58107 4.263C1.36879 4.263 1.19656 4.38375 1.19656 4.53279C1.19656 4.68184 1.36879 4.80258 1.58077 4.80258ZM1.96528 4.53279C1.96558 4.53279 1.96558 4.53279 1.96588 4.53279C1.96588 4.53339 1.96588 4.5337 1.96588 4.5343H1.96467C1.96498 4.5337 1.96528 4.53339 1.96528 4.53279Z" fill="black"/>
<path d="M3.89596 4.80258C3.92065 4.80258 3.94443 4.80047 3.96762 4.79746H4.73061V4.79264C4.91157 4.77066 5.04918 4.66076 5.04918 4.52767C5.04918 4.37863 4.87695 4.25789 4.66467 4.25789H4.66437C4.66015 4.11155 4.49033 3.99322 4.28046 3.99322C4.06819 3.99322 3.89626 4.11396 3.89626 4.263C3.68398 4.263 3.51175 4.38375 3.51175 4.53279C3.51175 4.68184 3.68398 4.80258 3.89596 4.80258ZM4.28076 4.53279C4.28107 4.53279 4.28106 4.53279 4.28137 4.53279C4.28137 4.53339 4.28137 4.5337 4.28137 4.5343H4.28016C4.28046 4.5337 4.28076 4.53339 4.28076 4.53279Z" fill="black"/>
<path d="M3.75653 12.3807C3.57587 12.2365 3.43405 12.0859 3.33197 11.9372L4.09316 11.9435C4.09316 11.9435 2.72435 9.64008 2.71321 9.13363C2.70237 8.62808 1.08786 11.9173 1.08786 11.9173L2.01285 11.9251C2.14322 12.4211 2.47775 12.9013 3.00648 13.3226C3.75322 13.9172 4.89921 14.3824 6.23881 14.5249V13.3126C5.21808 13.188 4.33826 12.8438 3.75653 12.3807Z" fill="black"/>
<path d="M12.7601 8.59977C12.6104 7.86147 12.0564 7.41945 11.3341 7.42006L11.3515 8.62446C11.4584 8.62025 11.5358 8.62145 11.5798 8.83915C11.5819 8.84848 11.5819 8.86023 11.5837 8.87046H12.7959C12.789 8.77772 12.7779 8.68679 12.7601 8.59977Z" fill="black"/>
<path d="M14.7088 4.32473C14.2487 3.85441 13.4385 3.45515 12.7324 3.63009C12.5252 3.65207 12.2786 3.64183 12.1148 3.60359C11.7102 3.50934 12.6044 3.2227 12.6827 3.20282C12.8589 3.15766 13.0353 3.1706 13.2009 3.21065C13.3286 3.24046 13.3391 3.11791 13.2063 3.11701C13.0443 3.11671 12.9058 3.12183 12.7387 3.16428C12.6041 3.1971 12.4545 3.24859 12.3121 3.29797C12.1422 3.35518 12.1871 3.31453 12.0525 3.38107C12.1145 3.24528 12.0775 3.28111 12.1323 3.10496C12.176 2.96525 12.2205 2.81952 12.2491 2.68824C12.2865 2.51992 12.2871 2.38172 12.2819 2.21942C12.2768 2.08634 12.1546 2.10139 12.1889 2.22725C12.2335 2.39105 12.2512 2.56689 12.2115 2.74454C12.194 2.82343 11.9342 3.72614 11.8279 3.32447C11.7851 3.16187 11.7677 2.91527 11.7824 2.70721C11.9372 1.99721 11.5135 1.19899 11.0297 0.75396C10.8424 0.580525 10.612 0.474838 10.612 0.474838C10.612 0.474838 9.93274 2.19654 10.0249 2.2396C9.96587 2.46813 10.4241 3.14923 10.4241 3.14923C10.2326 3.1688 9.96376 3.12845 9.70481 3.23835C9.54944 3.3055 9.39738 3.42714 9.26821 3.65146C9.21341 3.74721 9.17096 3.82881 9.14898 3.91071C9.13272 3.97214 9.08695 4.28318 9.24292 4.3985C9.39919 4.51442 9.7569 4.82968 10.0676 4.74416C10.3775 4.65865 10.7746 4.51743 10.7746 4.51743C10.7746 4.51743 10.6458 4.69749 10.5027 4.79806C10.3989 4.87123 10.1348 5.15276 10.2417 5.2467C10.348 5.34215 10.6126 5.07809 10.6828 4.9721C10.7785 4.82516 10.955 4.69147 10.955 4.69147C10.955 4.69147 10.8255 5.09344 10.749 5.40508C10.6732 5.71763 10.9321 6.08106 11.1191 6.21926C11.3055 6.35717 11.55 6.31561 11.6099 6.29755C11.6915 6.27376 11.7722 6.2286 11.8655 6.17109C12.0853 6.03559 12.2031 5.87902 12.2651 5.72274C12.3693 5.46018 12.319 5.1925 12.3319 5.001C12.3319 5.001 13.0281 5.4385 13.2539 5.37286C13.3 5.46319 15.0012 4.73182 15.0012 4.73182C15.0012 4.73182 14.8862 4.50659 14.7088 4.32473Z" fill="black"/>
</g>
<defs>
<clipPath id="clip0">
<rect width="15" height="15" fill="white"/>
</clipPath>
</defs>
</svg>
