<svg width="40" height="40" viewBox="0 0 40 40" fill="none" xmlns="http://www.w3.org/2000/svg">
<g clip-path="url(#clip0)">
<path d="M8.28471 21.3895C8.28471 19.2529 8.90378 17.2656 9.95804 15.5794C9.51562 14.8231 8.9648 14.0707 8.29836 13.5022C6.24204 11.751 4.98705 19.2601 4.98705 19.2601L2.46823 19.4616L1.71106 9.99418L16.1736 8.83795L16.331 10.8084C16.7549 10.6911 17.1901 10.6004 17.6333 10.5338L17.39 7.48741C17.374 7.2947 17.2054 7.14857 17.0103 7.16462L0.325986 8.4975C0.130069 8.51356 -0.0136575 8.68378 0.00159833 8.87729L1.15542 23.3133C1.17148 23.5076 1.3409 23.6546 1.53601 23.6385L8.42844 23.0861C8.34253 22.5329 8.28471 21.9684 8.28471 21.3895Z" fill="black"/>
<path d="M15.7512 29.9376C15.6492 29.8982 15.5448 29.8629 15.4445 29.8203C15.2823 29.6349 14.7395 28.9564 14.2088 27.7078C14.6769 27.8299 15.1948 27.9366 15.7512 28.0258V27.1851C15.0398 27.063 14.3991 26.9105 13.8442 26.7395C13.572 25.914 13.336 24.9096 13.1938 23.7212C13.935 23.8914 14.7901 24.0376 15.7512 24.1452V23.3125C14.7459 23.1953 13.8595 23.0331 13.1119 22.85C13.0774 22.3739 13.0525 21.8809 13.0525 21.3509C13.0525 20.9904 13.0622 20.6411 13.0782 20.3047C13.947 20.0823 14.994 19.8848 16.2273 19.7555C16.2033 20.2509 16.1856 20.764 16.1856 21.3084C16.1856 22.0013 16.2097 22.6469 16.2482 23.2579H17.0769C17.0359 22.6477 17.0094 22.0053 17.0094 21.3084C17.0094 20.7351 17.0295 20.1995 17.0576 19.6816C17.7232 19.6335 18.4322 19.6037 19.1966 19.6037C19.7852 19.6037 20.3312 19.6238 20.8571 19.6543C20.8908 20.2204 20.9141 20.8074 20.9141 21.4401C20.9141 21.6119 20.9069 21.7709 20.9045 21.9363H21.7291C21.7315 21.7709 21.7371 21.6111 21.7371 21.4401C21.7371 20.8298 21.717 20.2614 21.6865 19.7113C23.0218 19.8286 24.1395 20.0277 25.05 20.2589C25.0653 20.5801 25.0741 20.9109 25.0741 21.2578C25.0741 21.4915 25.0677 21.7147 25.0589 21.9371H25.1472V23.2587H26.4688C27.2388 22.9905 27.8081 22.7192 28.1855 22.5088C28.1534 22.7609 28.1092 23.0114 28.057 23.2587H28.8969C29.0174 22.6381 29.0856 21.9981 29.0856 21.3405C29.0856 17.3499 26.7434 13.8965 23.3623 12.2801C23.343 12.2593 23.3277 12.2416 23.3213 12.236L23.3036 12.2528C22.0109 11.645 20.5688 11.303 19.0481 11.303C18.8248 11.303 18.604 11.3134 18.3848 11.3271V11.3263V11.3271C13.1593 11.6707 9.01294 16.0283 9.01294 21.3397C9.01294 25.7173 11.8345 29.4397 15.7512 30.808V29.9352V29.9352V29.9376ZM16.2763 18.9237C15.0687 19.0409 14.0225 19.2224 13.1417 19.4335C13.2597 18.1456 13.4869 17.0624 13.7559 16.1712C14.5805 15.9159 15.5826 15.695 16.7677 15.5666C16.5565 16.514 16.3767 17.6229 16.2763 18.9237ZM19.1966 18.7815C18.4539 18.7815 17.765 18.8104 17.1122 18.8546C17.223 17.541 17.4133 16.4233 17.6341 15.4919C18.0733 15.4638 18.527 15.4437 19.0127 15.4437C19.4471 15.4437 19.8574 15.459 20.2549 15.4815C20.4813 16.4008 20.6772 17.5137 20.7953 18.8217C20.2886 18.7968 19.7579 18.7815 19.1966 18.7815ZM21.6295 18.8771C21.5211 17.5868 21.3372 16.4835 21.1221 15.5481C22.4316 15.6798 23.5212 15.9255 24.4125 16.2057C24.667 17.0785 24.8806 18.1328 24.9906 19.3902C24.0592 19.1694 22.9447 18.9831 21.6295 18.8771ZM25.8562 22.5859C25.8803 22.1611 25.8979 21.7219 25.8979 21.2578C25.8979 20.9944 25.8867 20.7447 25.8795 20.4942C27.1569 20.8925 27.9133 21.314 28.2281 21.5147C28.0442 21.644 27.2918 22.1266 25.8562 22.5859ZM28.2273 20.5552C27.727 20.2854 26.9434 19.9322 25.8337 19.6102C25.7486 18.4371 25.5792 17.4181 25.3624 16.547C26.7755 17.1187 27.4669 17.7064 27.5456 17.7763C27.9109 18.6434 28.1454 19.5789 28.2273 20.5552ZM26.7314 16.2627C26.293 16.0307 25.7446 15.7826 25.0781 15.5513C24.8549 14.864 24.6108 14.2939 24.3756 13.8298C25.303 14.4906 26.1035 15.3153 26.7314 16.2627ZM22.8572 12.9546C23.0868 13.2381 23.612 13.9743 24.0961 15.2486C23.2001 15.0053 22.1402 14.8078 20.9085 14.7042C20.5825 13.5343 20.2228 12.7009 19.9538 12.1725C20.9799 12.2737 21.9563 12.5443 22.8572 12.9546ZM18.8578 12.1332C18.9011 12.1332 18.9445 12.1308 18.9886 12.13C19.1894 12.468 19.6214 13.2894 20.0268 14.6464C19.6984 14.632 19.3636 14.6223 19.0135 14.6223C18.6129 14.6223 18.2275 14.6328 17.8565 14.6504C18.2259 13.3754 18.6265 12.5467 18.8578 12.1332ZM15.3401 12.9105C16.1374 12.5588 16.9925 12.3171 17.8878 12.2039C17.6172 12.7571 17.28 13.5865 16.9749 14.7155C15.8692 14.8166 14.9065 14.9933 14.0835 15.2109C14.6126 13.8523 15.1723 13.1128 15.3401 12.9105ZM13.8225 13.7608C13.5809 14.2265 13.3263 14.8086 13.0911 15.516C12.3933 15.7569 11.8232 16.0146 11.372 16.2579C12.0232 15.2775 12.8566 14.4296 13.8225 13.7608ZM10.5586 17.7674L10.5739 17.7827C10.5867 17.7698 11.2796 17.1235 12.7956 16.5132C12.5675 17.4013 12.3901 18.4507 12.2986 19.6535C11.1704 19.9795 10.3715 20.3344 9.87048 20.5954C9.94997 19.6005 10.186 18.6499 10.5586 17.7674ZM9.84318 21.5589C10.1395 21.3766 10.9279 20.9503 12.2496 20.5392C12.2399 20.8057 12.2303 21.0707 12.2303 21.3517C12.2303 21.7942 12.2456 22.2133 12.2689 22.6204C11.0187 22.2454 10.2246 21.8504 9.84478 21.6336C9.84398 21.6087 9.84318 21.5838 9.84318 21.5589ZM9.92668 22.6124C10.459 22.8749 11.2515 23.2041 12.3363 23.5068C12.4495 24.6141 12.6438 25.5704 12.8759 26.3974C11.6008 25.89 10.8934 25.3624 10.6814 25.1874C10.3113 24.3836 10.0527 23.5197 9.92668 22.6124ZM11.5848 26.7298C12.0224 26.953 12.5595 27.1851 13.2011 27.4035C13.4283 28.0282 13.6692 28.5509 13.8988 28.9765C13.0019 28.3686 12.2191 27.6058 11.5848 26.7298Z" fill="black"/>
<path d="M17.6358 24.7329L17.5186 38.7346H38.1035L38.2207 24.7329H17.6358ZM24.9738 37.433C21.8986 37.433 19.4063 34.9407 19.4063 31.8638C19.4063 28.787 21.8986 26.2946 24.9738 26.2946C28.0499 26.2946 30.5422 28.787 30.5422 31.8638C30.5422 34.9407 28.0499 37.433 24.9738 37.433ZM35.8681 27.642H34.08C33.5468 27.642 33.1148 27.2092 33.1148 26.6793C33.1148 26.1461 33.5468 25.7149 34.08 25.7149H35.8681C36.3972 25.7149 36.83 26.1461 36.83 26.6793C36.83 27.2092 36.3972 27.642 35.8681 27.642Z" fill="black"/>
<path d="M23.8048 23.2852H19.5837V24.8172H23.8048V23.2852Z" fill="black"/>
<path d="M28.746 31.8622C28.746 33.9828 27.0302 35.693 24.9152 35.693C22.7987 35.693 21.0852 33.9812 21.0852 31.8622C21.0852 29.7481 22.7987 28.0322 24.9152 28.0322C27.0294 28.033 28.746 29.7481 28.746 31.8622Z" fill="black"/>
<path d="M4.21541 12.8069C4.28125 12.8069 4.34468 12.8013 4.40651 12.7932H6.44115V12.7804C6.92372 12.7218 7.29066 12.4287 7.29066 12.0738C7.29066 11.6763 6.83138 11.3544 6.26531 11.3544C6.26531 11.3544 6.26451 11.3544 6.2637 11.3544C6.25327 10.9641 5.80041 10.6486 5.24076 10.6486C4.67469 10.6486 4.21621 10.9706 4.21621 11.368C3.65014 11.368 3.19086 11.69 3.19086 12.0874C3.19086 12.4849 3.65014 12.8069 4.21541 12.8069ZM5.24076 12.0874C5.24156 12.0874 5.24156 12.0874 5.24237 12.0874C5.24237 12.0891 5.24237 12.0899 5.24237 12.0915H5.23915C5.23996 12.0899 5.24076 12.0891 5.24076 12.0874Z" fill="black"/>
<path d="M10.3892 12.8069C10.455 12.8069 10.5185 12.8013 10.5803 12.7932H12.615V12.7804C13.0975 12.7218 13.4645 12.4287 13.4645 12.0738C13.4645 11.6763 13.0052 11.3544 12.4391 11.3544H12.4383C12.4271 10.9641 11.9742 10.6486 11.4146 10.6486C10.8485 10.6486 10.39 10.9706 10.39 11.368C9.82394 11.368 9.36465 11.69 9.36465 12.0874C9.36465 12.4849 9.82394 12.8069 10.3892 12.8069ZM11.4154 12.0874C11.4162 12.0874 11.4162 12.0874 11.417 12.0874C11.417 12.0891 11.417 12.0899 11.417 12.0915H11.4138C11.4146 12.0899 11.4154 12.0891 11.4154 12.0874Z" fill="black"/>
<path d="M10.0174 33.0152C9.53565 32.6306 9.15747 32.2292 8.88527 31.8325L10.9151 31.8494C10.9151 31.8494 7.26494 25.7069 7.23523 24.3564C7.20633 23.0082 2.90097 31.7795 2.90097 31.7795L5.3676 31.8004C5.71527 33.1228 6.60734 34.4035 8.0173 35.5268C10.0086 37.1126 13.0646 38.3532 16.6368 38.733V35.5003C13.9149 35.1679 11.5687 34.2502 10.0174 33.0152Z" fill="black"/>
<path d="M34.0269 22.9327C33.6279 20.9639 32.1505 19.7852 30.2242 19.7868L30.2708 22.9986C30.5558 22.9873 30.7622 22.9905 30.8794 23.5711C30.885 23.596 30.885 23.6273 30.8899 23.6546H34.1225C34.104 23.4073 34.0743 23.1648 34.0269 22.9327Z" fill="black"/>
<path d="M39.2235 11.5326C37.9966 10.2784 35.8359 9.21372 33.953 9.68023C33.4006 9.73884 32.743 9.71154 32.3062 9.60957C31.2271 9.35825 33.6118 8.59385 33.8206 8.54086C34.2903 8.42042 34.7608 8.45494 35.2024 8.56174C35.5429 8.64123 35.571 8.31443 35.2169 8.31202C34.7849 8.31122 34.4155 8.32487 33.9699 8.43808C33.611 8.5256 33.2119 8.66291 32.8321 8.79459C32.3793 8.94715 32.4989 8.83875 32.14 9.0162C32.3054 8.65407 32.2067 8.74962 32.3528 8.2799C32.4692 7.90734 32.588 7.51872 32.6643 7.16864C32.7639 6.71979 32.7655 6.35124 32.7518 5.91846C32.7382 5.56356 32.4122 5.60371 32.5037 5.93934C32.6226 6.37614 32.6699 6.84505 32.564 7.31879C32.5174 7.52916 31.8245 9.93637 31.541 8.86525C31.427 8.43166 31.3804 7.77405 31.4198 7.21922C31.8325 5.32589 30.7027 3.1973 29.4124 2.01056C28.913 1.54807 28.2987 1.26624 28.2987 1.26624C28.2987 1.26624 26.4873 5.85744 26.733 5.97226C26.5756 6.58169 27.7977 8.39794 27.7977 8.39794C27.287 8.45013 26.57 8.34253 25.8795 8.63561C25.4652 8.81466 25.0597 9.13905 24.7152 9.73724C24.5691 9.99257 24.4559 10.2102 24.3973 10.4286C24.3539 10.5924 24.2319 11.4218 24.6478 11.7293C25.0645 12.0385 26.0184 12.8791 26.847 12.6511C27.6733 12.4231 28.7323 12.0465 28.7323 12.0465C28.7323 12.0465 28.3887 12.5266 28.0073 12.7948C27.7303 12.9899 27.0261 13.7407 27.3111 13.9912C27.5946 14.2457 28.3004 13.5416 28.4874 13.2589C28.7428 12.8671 29.2133 12.5106 29.2133 12.5106C29.2133 12.5106 28.868 13.5825 28.6641 14.4136C28.4617 15.247 29.1523 16.2161 29.6509 16.5847C30.1479 16.9524 30.7999 16.8416 30.9597 16.7935C31.1773 16.73 31.3925 16.6096 31.6414 16.4562C32.2275 16.0949 32.5415 15.6774 32.7069 15.2607C32.9847 14.5605 32.8506 13.8467 32.8851 13.336C32.8851 13.336 34.7415 14.5027 35.3437 14.3276C35.4666 14.5685 40.0032 12.6182 40.0032 12.6182C40.0032 12.6182 39.6965 12.0176 39.2235 11.5326Z" fill="black"/>
</g>
<defs>
<clipPath id="clip0">
<rect width="40" height="40" fill="white"/>
</clipPath>
</defs>
</svg>
